<svg xmlns="http://www.w3.org/2000/svg" xmlns:xlink="http://www.w3.org/1999/xlink" xmlns:lucid="lucid" width="1760" height="1360"><g transform="translate(0 0)" lucid:page-tab-id="0_0"><path d="M80 602a2 2 0 0 1 2-2h356a2 2 0 0 1 2 2v136a2 2 0 0 1-2 2H82a2 2 0 0 1-2-2z" stroke="#000" stroke-width="2" fill="#ffc4c4"/><use xlink:href="#a" transform="matrix(1,0,0,1,85,605) translate(154.723 70.57849999999999)"/><path d="M680 382a2 2 0 0 1 2-2h356a2 2 0 0 1 2 2v136a2 2 0 0 1-2 2H682a2 2 0 0 1-2-2z" stroke="#000" stroke-width="2" fill="#ffa2a2"/><use xlink:href="#b" transform="matrix(1,0,0,1,685,385) translate(130.063 70.57849999999999)"/><path d="M700 602a2 2 0 0 1 2-2h356a2 2 0 0 1 2 2v136a2 2 0 0 1-2 2H702a2 2 0 0 1-2-2z" stroke="#000" stroke-width="2" fill="#ffa2a2"/><use xlink:href="#c" transform="matrix(1,0,0,1,705,605) translate(152.401 70.57849999999999)"/><path d="M442 670h118V450h100.5" stroke="#000" stroke-width="2" fill="none"/><path d="M442 671h-1v-2h1z" stroke="#000" stroke-width=".05"/><path d="M675.78 450l-14.27 4.64v-9.28z" stroke="#000" stroke-width="2"/><path d="M442 670h238.5" stroke="#000" stroke-width="2" fill="none"/><path d="M442 671h-1v-2h1z" stroke="#000" stroke-width=".05"/><path d="M695.78 670l-14.27 4.64v-9.28z" stroke="#000" stroke-width="2"/><path d="M750 20h260v160H750z" stroke="#000" stroke-width="2" fill="#fff"/><use xlink:href="#d" transform="matrix(1,0,0,1,755,25) translate(68.28200000000001 83.39099999999999)"/><use xlink:href="#e" transform="matrix(1,0,0,1,755,25) translate(112.976 83.39099999999999)"/><use xlink:href="#f" transform="matrix(1,0,0,1,755,25) translate(136.412 83.39099999999999)"/><path d="M860 378v-98h20v-80.5" stroke="#000" stroke-width="2" fill="none"/><path d="M861 379h-2v-1h2z" stroke="#000" stroke-width=".05"/><path d="M880 184.24l4.64 14.26h-9.28z" stroke="#000" stroke-width="2"/><path d="M1180 590h320v160h-320z" stroke="#000" stroke-width="2" fill="#fff"/><use xlink:href="#g" transform="matrix(1,0,0,1,1185,595) translate(117.05600000000001 83.39099999999999)"/><use xlink:href="#h" transform="matrix(1,0,0,1,1185,595) translate(163.352 83.39099999999999)"/><path d="M1062 670h98.5" stroke="#000" stroke-width="2" fill="none"/><path d="M1062 671h-1v-2h1z" stroke="#000" stroke-width=".05"/><path d="M1175.76 670l-14.26 4.64v-9.28z" stroke="#000" stroke-width="2"/><path d="M780 820h160v160H780z" stroke="#000" stroke-width="2" fill="#fff"/><use xlink:href="#i" transform="matrix(1,0,0,1,785,825) translate(37.173 83.39099999999999)"/><use xlink:href="#j" transform="matrix(1,0,0,1,785,825) translate(74.79299999999999 83.39099999999999)"/><path d="M1340 752v33H872v15.5" stroke="#000" stroke-width="2" fill="none"/><path d="M1341 752.03h-2V751h2z" stroke="#000" stroke-width=".05"/><path d="M872 815.76l-4.64-14.26h9.28z" stroke="#000" stroke-width="2"/><path d="M1380 840h280v120h-280z" stroke="#000" stroke-width="2" fill="#fff"/><use xlink:href="#g" transform="matrix(1,0,0,1,1392,852) translate(82.253 53.766)"/><use xlink:href="#k" transform="matrix(1,0,0,1,1392,852) translate(128.54899999999998 53.766)"/><path d="M1340 752v43h180v25.5" stroke="#000" stroke-width="2" fill="none"/><path d="M1341 752.03h-2V751h2z" stroke="#000" stroke-width=".05"/><path d="M1520 835.76l-4.64-14.26h9.28z" stroke="#000" stroke-width="2"/><path d="M1180 1080h240v120h-240z" stroke="#000" stroke-width="2" fill="#fff"/><use xlink:href="#g" transform="matrix(1,0,0,1,1192,1092) translate(50.589000000000006 53.766)"/><use xlink:href="#l" transform="matrix(1,0,0,1,1192,1092) translate(96.88499999999999 53.766)"/><path d="M1460 1080h280v120h-280z" stroke="#000" stroke-width="2" fill="#fff"/><use xlink:href="#i" transform="matrix(1,0,0,1,1472,1092) translate(74.927 53.766)"/><use xlink:href="#l" transform="matrix(1,0,0,1,1472,1092) translate(112.547 53.766)"/><path d="M1520 962v58h-220v40.5" stroke="#000" stroke-width="2" fill="none"/><path d="M1521 962.03h-2V961h2z" stroke="#000" stroke-width=".05"/><path d="M1300 1075.76l-4.64-14.26h9.28z" stroke="#000" stroke-width="2"/><path d="M1520 962v58h80v40.5" stroke="#000" stroke-width="2" fill="none"/><path d="M1521 962.03h-2V961h2z" stroke="#000" stroke-width=".05"/><path d="M1600 1075.76l-4.64-14.26h9.28z" stroke="#000" stroke-width="2"/><path d="M1040 840h200v120h-200z" stroke="#000" stroke-width="2" fill="#fff"/><g><use xlink:href="#m" transform="matrix(1,0,0,1,1045,845) translate(54.194 62.4535)"/><use xlink:href="#k" transform="matrix(1,0,0,1,1045,845) translate(90.608 62.4535)"/></g><path d="M1242 900h118.5" stroke="#000" stroke-width="2" fill="none"/><path d="M1242.03 901H1241v-2h1.03z" stroke="#000" stroke-width=".05"/><path d="M1375.76 900l-14.26 4.64v-9.28z" stroke="#000" stroke-width="2"/><defs><path fill="#3d4752" d="M440-1497V0H130v-1497h310" id="n"/><path fill="#3d4752" d="M366-1016c125-49 306-50 431 0 190 75 313 236 313 495 0 261-123 423-313 499-125 50-306 50-431 0C175-98 50-259 50-521c0-260 126-421 316-495zm4 497c0 183 45 305 212 305 163 0 208-124 208-305 0-182-44-304-208-304-167 0-212 121-212 304" id="o"/><path fill="#3d4752" d="M232-439C135-490 58-579 58-718c0-234 188-330 428-337 92-3 169 20 233 50h313c-5 52 14 124-14 154-23 25-86 29-126 40 66 303-178 459-498 423-40 20-49 70-6 84 149 48 389 2 514 89 58 41 104 101 100 201-8 190-138 291-296 340-237 73-576 24-664-139-18-33-28-67-28-102C16-21 87-74 171-106c-45-31-80-75-77-150 4-97 67-146 138-183zm50 484c0 94 106 99 210 99 98 0 176-9 214-64C756-84 500-31 348-55c-32 24-66 51-66 100zm58-756c0 91 53 137 146 138 96 2 146-50 146-138 0-90-49-135-146-135s-146 45-146 135" id="p"/><path fill="#3d4752" d="M440-1037V0H130v-1037h310zm-154-466c113 0 190 70 190 182 0 111-79 180-190 180-109 0-184-71-184-180 0-110 74-182 184-182" id="q"/><path fill="#3d4752" d="M612-820c-81 1-134 39-182 81V0H120v-1037h192c70-3 79 59 94 112 74-70 159-128 302-128 236 0 352 157 352 394V0H750v-659c0-96-44-162-138-161" id="r"/><g id="a"><use transform="matrix(0.009,0,0,0.009,0,0)" xlink:href="#n"/><use transform="matrix(0.009,0,0,0.009,5.13,0)" xlink:href="#o"/><use transform="matrix(0.009,0,0,0.009,15.57,0)" xlink:href="#p"/><use transform="matrix(0.009,0,0,0.009,24.984,0)" xlink:href="#q"/><use transform="matrix(0.009,0,0,0.009,30.114,0)" xlink:href="#r"/></g><path fill="#3d4752" d="M1388-1020c73 173 73 409 0 582C1277-177 1049 0 686 0H120v-1457h566c362 6 592 177 702 437zM686-260c280-8 410-185 410-469 0-283-130-460-410-468H460v937h226" id="s"/><path fill="#3d4752" d="M572-1057c257 0 406 153 406 409V0c-68-4-160 9-208-12-30-14-45-72-60-107C623-47 539 18 382 16 189 13 70-77 70-270c0-183 145-251 311-298 78-21 176-33 295-36 8-132-26-216-144-216-125 0-159 78-268 78-94 0-104-95-146-151 112-100 257-164 454-164zM366-285c-2 73 41 96 114 96 97 0 140-35 196-89v-144c-104 4-184 15-248 46-39 19-61 43-62 91" id="t"/><path fill="#3d4752" d="M56-725c5-259 241-361 518-318 104 16 188 63 250 124l-70 109c-15 22-27 35-60 35-81 0-126-60-222-60-69 0-122 24-122 85 0 75 88 87 152 109 156 54 328 97 328 304C830-90 649 16 394 16 236 16 110-38 22-112c35-48 58-109 103-146 116-42 152 74 285 65 73-5 130-23 130-90 0-78-87-92-154-113C219-449 52-505 56-725" id="u"/><path fill="#3d4752" d="M612-820c-81 1-134 39-182 81V0H120v-1497h310v551c73-60 149-110 278-107 236 5 352 157 352 394V0H750v-659c0-96-44-162-138-161" id="v"/><path fill="#3d4752" d="M666 16c-127 3-195-56-255-124C401-53 395 0 326 0H120v-1497h310v570c74-71 163-129 304-126 201 5 299 137 348 303 38 127 40 313-4 439-63 179-182 322-412 327zm124-543c0-153-21-288-164-293-99-3-151 43-196 98v440c40 45 88 70 162 70 160 0 198-144 198-315" id="w"/><path fill="#3d4752" d="M768-795c-14 65-88 29-146 29-81 0-145 43-192 130V0H120v-1037c73 2 156-8 222 4 64 11 52 105 69 166 65-96 144-190 283-190 47 0 85 11 114 34" id="x"/><path fill="#3d4752" d="M494-1057c110-3 175 36 236 85v-525h310V0H848c-79 3-80-75-100-131C671-51 581 16 426 16 225 16 127-123 78-290c-38-128-40-313 4-440 62-181 183-321 412-327zM370-515c0 153 21 293 164 293 98 0 150-43 196-97v-440c-41-45-87-70-162-70-160 0-198 144-198 314" id="y"/><g id="b"><use transform="matrix(0.009,0,0,0.009,0,0)" xlink:href="#s"/><use transform="matrix(0.009,0,0,0.009,13.356,0)" xlink:href="#t"/><use transform="matrix(0.009,0,0,0.009,23.058,0)" xlink:href="#u"/><use transform="matrix(0.009,0,0,0.009,30.977999999999998,0)" xlink:href="#v"/><use transform="matrix(0.009,0,0,0.009,41.418,0)" xlink:href="#w"/><use transform="matrix(0.009,0,0,0.009,51.858,0)" xlink:href="#o"/><use transform="matrix(0.009,0,0,0.009,62.297999999999995,0)" xlink:href="#t"/><use transform="matrix(0.009,0,0,0.009,72,0)" xlink:href="#x"/><use transform="matrix(0.009,0,0,0.009,79.434,0)" xlink:href="#y"/></g><path fill="#3d4752" d="M1058-1457v260H460v340h458v250H460v347h598V0H120v-1457h938" id="z"/><path fill="#3d4752" d="M774-74c-71 55-172 90-290 90-196 0-304-108-304-303v-536c-70 1-146 12-146-61v-121l165-32 61-253c16-78 146-38 230-48v303h252v212H490v515c0 45 23 83 68 83 48 0 88-50 122 4" id="A"/><path fill="#3d4752" d="M544 269c-20 41-37 60-98 60H214L414-91 0-1037h274c46-1 73 23 84 54 69 190 150 371 209 571 68-189 134-380 199-571 10-28 45-55 82-54h250" id="B"/><g id="c"><use transform="matrix(0.009,0,0,0.009,0,0)" xlink:href="#z"/><use transform="matrix(0.009,0,0,0.009,10.17,0)" xlink:href="#r"/><use transform="matrix(0.009,0,0,0.009,20.61,0)" xlink:href="#A"/><use transform="matrix(0.009,0,0,0.009,27.81,0)" xlink:href="#x"/><use transform="matrix(0.009,0,0,0.009,35.244,0)" xlink:href="#B"/></g><path fill="#3d4752" d="M1504-1022c73 177 73 411 0 587-110 265-336 451-702 451-365 0-594-187-704-451-73-177-73-412 0-588 110-265 339-450 704-450s592 187 702 451zM802-264c280 0 410-182 410-465 0-282-131-465-410-465-281 0-412 182-412 465 0 284 130 465 412 465" id="C"/><path fill="#3d4752" d="M694 0H412L10-1037h258c43-1 77 23 86 54 69 227 146 446 203 684 58-239 142-456 211-684 10-29 42-55 82-54h246" id="D"/><path fill="#3d4752" d="M1024-162C926-48 781 16 578 16 325 16 169-111 94-299c-49-123-59-309-6-439 74-183 225-315 476-315 298 0 466 176 466 475 0 66-3 115-70 115H362c16 155 90 243 244 247 98 2 155-39 218-71 37-18 85-16 110 14zM752-643c-3-120-60-196-182-196-129 0-185 80-205 196h387" id="E"/><g id="d"><use transform="matrix(0.009,0,0,0.009,0,0)" xlink:href="#C"/><use transform="matrix(0.009,0,0,0.009,14.399999999999999,0)" xlink:href="#D"/><use transform="matrix(0.009,0,0,0.009,23.994,0)" xlink:href="#E"/><use transform="matrix(0.009,0,0,0.009,33.786,0)" xlink:href="#x"/></g><g id="e"><use transform="matrix(0.009,0,0,0.009,0,0)" xlink:href="#t"/><use transform="matrix(0.009,0,0,0.009,9.702,0)" xlink:href="#n"/><use transform="matrix(0.009,0,0,0.009,14.832,0)" xlink:href="#n"/></g><g id="f"><use transform="matrix(0.009,0,0,0.009,0,0)" xlink:href="#A"/><use transform="matrix(0.009,0,0,0.009,7.199999999999999,0)" xlink:href="#x"/><use transform="matrix(0.009,0,0,0.009,14.633999999999999,0)" xlink:href="#E"/><use transform="matrix(0.009,0,0,0.009,24.426,0)" xlink:href="#r"/><use transform="matrix(0.009,0,0,0.009,34.866,0)" xlink:href="#y"/></g><path fill="#3d4752" d="M0-1457h272c59-1 96 30 112 73 107 297 215 592 320 891 13 40 26 82 37 126 17-83 44-165 69-237l280-780c13-37 56-73 110-73h274L890 0H584" id="F"/><path fill="#3d4752" d="M0-1037h248c41-1 80 21 86 54 48 222 103 438 144 667 67-218 130-445 190-668 20-73 133-51 220-54 41-1 78 23 86 54 60 224 119 448 180 670 45-228 105-446 154-669 7-31 44-55 82-54h236L1304 0h-252c-34-2-47-21-56-52-61-218-128-430-183-654-54 226-124 435-185 654-10 35-32 52-66 52H322" id="G"/><g id="g"><use transform="matrix(0.009,0,0,0.009,0,0)" xlink:href="#F"/><use transform="matrix(0.009,0,0,0.009,13.265999999999998,0)" xlink:href="#q"/><use transform="matrix(0.009,0,0,0.009,18.395999999999997,0)" xlink:href="#E"/><use transform="matrix(0.009,0,0,0.009,28.187999999999995,0)" xlink:href="#G"/></g><path fill="#3d4752" d="M458-270h540V0H120v-1457h338v1187" id="H"/><g id="h"><use transform="matrix(0.009,0,0,0.009,0,0)" xlink:href="#H"/><use transform="matrix(0.009,0,0,0.009,9.341999999999999,0)" xlink:href="#q"/><use transform="matrix(0.009,0,0,0.009,14.471999999999996,0)" xlink:href="#u"/><use transform="matrix(0.009,0,0,0.009,22.391999999999996,0)" xlink:href="#A"/></g><path fill="#3d4752" d="M1476 0h-262c-58 1-97-31-112-73l-86-254H462L376-73C363-36 320 0 266 0H2l564-1457h346zM540-557h398c-66-202-136-394-199-600-61 210-134 396-199 600" id="I"/><g id="i"><use transform="matrix(0.009,0,0,0.009,0,0)" xlink:href="#I"/><use transform="matrix(0.009,0,0,0.009,13.265999999999998,0)" xlink:href="#y"/><use transform="matrix(0.009,0,0,0.009,23.705999999999992,0)" xlink:href="#y"/></g><path fill="#3d4752" d="M411-924c4 46 7 96 7 143V0H120v-1457c80 4 178-13 242 9 22 7 32 24 48 43l692 875c-5-51-8-104-8-156v-771h298V0c-80-4-180 12-242-12-18-7-35-23-52-44" id="J"/><g id="j"><use transform="matrix(0.009,0,0,0.009,0,0)" xlink:href="#J"/><use transform="matrix(0.009,0,0,0.009,13.607999999999999,0)" xlink:href="#E"/><use transform="matrix(0.009,0,0,0.009,23.4,0)" xlink:href="#G"/></g><g id="k"><use transform="matrix(0.009,0,0,0.009,0,0)" xlink:href="#z"/><use transform="matrix(0.009,0,0,0.009,10.17,0)" xlink:href="#r"/><use transform="matrix(0.009,0,0,0.009,20.61,0)" xlink:href="#A"/><use transform="matrix(0.009,0,0,0.009,27.81,0)" xlink:href="#x"/><use transform="matrix(0.009,0,0,0.009,35.244,0)" xlink:href="#B"/></g><path fill="#3d4752" d="M438-595c4 199 91 328 288 328 196 0 288-128 288-327v-863h338v863c-5 295-147 478-365 565-149 59-375 60-523 0-219-87-364-269-364-565v-863h338v862" id="K"/><path fill="#3d4752" d="M666 16c-111 3-175-34-236-85v398H120v-1366h192c78-3 80 73 99 128 76-81 169-148 323-148 201 0 299 140 348 307 38 128 40 313-4 439-63 179-182 321-412 327zm124-543c0-153-21-288-164-293-99-3-151 43-196 98v440c40 45 88 70 162 70 160 0 198-144 198-315" id="L"/><g id="l"><use transform="matrix(0.009,0,0,0.009,0,0)" xlink:href="#K"/><use transform="matrix(0.009,0,0,0.009,13.068,0)" xlink:href="#L"/><use transform="matrix(0.009,0,0,0.009,23.472,0)" xlink:href="#y"/><use transform="matrix(0.009,0,0,0.009,33.912,0)" xlink:href="#t"/><use transform="matrix(0.009,0,0,0.009,43.614,0)" xlink:href="#A"/><use transform="matrix(0.009,0,0,0.009,50.81399999999999,0)" xlink:href="#E"/><use transform="matrix(0.009,0,0,0.009,60.605999999999995,0)" xlink:href="#u"/></g><g id="m"><use transform="matrix(0.009,0,0,0.009,0,0)" xlink:href="#z"/><use transform="matrix(0.009,0,0,0.009,10.17,0)" xlink:href="#y"/><use transform="matrix(0.009,0,0,0.009,20.61,0)" xlink:href="#q"/><use transform="matrix(0.009,0,0,0.009,25.74,0)" xlink:href="#A"/></g></defs></g></svg>