<svg xmlns="http://www.w3.org/2000/svg" xmlns:xlink="http://www.w3.org/1999/xlink" xmlns:lucid="lucid" width="1660" height="1020"><g transform="translate(-220 -140)" lucid:page-tab-id="0_0"><path d="M0 0h1870.87v1322.83H0z" fill="#fff"/><path d="M820 486a6 6 0 0 1 6-6h148a6 6 0 0 1 6 6v108a6 6 0 0 1-6 6H826a6 6 0 0 1-6-6z" stroke="#3a414a" fill="#fff"/><use xlink:href="#a" transform="matrix(1,0,0,1,832,492) translate(28.709876543209873 53.77777777777778)"/><use xlink:href="#b" transform="matrix(1,0,0,1,832,492) translate(71.91975308641975 53.77777777777778)"/><use xlink:href="#c" transform="matrix(1,0,0,1,832,492) translate(85.43827160493828 53.77777777777778)"/><path d="M1525 163.33a9 9 0 0 1 10 0l140 93.34a4 4 0 0 1 0 6.66l-140 93.34a9 9 0 0 1-10 0l-140-93.34a4 4 0 0 1 0-6.66z" stroke="#3a414a" fill="#fff"/><use xlink:href="#d" transform="matrix(1,0,0,1,1385,165) translate(80.43709876543211 100.90277777777777)"/><use xlink:href="#e" transform="matrix(1,0,0,1,1385,165) translate(138.4000617283951 100.90277777777777)"/><path d="M375.12 463.5a8.4 8.4 0 0 1 9.76 0l130.24 93a4.3 4.3 0 0 1 0 7l-130.24 93a8.4 8.4 0 0 1-9.76 0l-130.24-93a4.3 4.3 0 0 1 0-7z" stroke="#3a414a" fill="#fff"/><use xlink:href="#f" transform="matrix(1,0,0,1,245,465) translate(80.74574074074074 89.02777777777777)"/><use xlink:href="#g" transform="matrix(1,0,0,1,245,465) translate(71.64080246913579 115.69444444444446)"/><path d="M819.04 540H673.58a6 6 0 0 0-6 6v8a6 6 0 0 1-6 6H532" stroke="#3a414a" fill="none"/><path d="M819.54 540.5h-.52v-1h.52z" stroke="#3a414a" stroke-width=".05" fill="#3a414a"/><path d="M517.25 560l14.26-4.64v9.28z" stroke="#3a414a" fill="#3a414a"/><path d="M980.96 540h195.6a6 6 0 0 0 6-6V266a6 6 0 0 1 6-6h179.74" stroke="#3a414a" fill="none"/><path d="M980.98 540.5h-.52v-1h.52z" stroke="#3a414a" stroke-width=".05" fill="#3a414a"/><path d="M1383.07 260l-14.27 4.64v-9.28z" stroke="#3a414a" fill="#3a414a"/><path d="M1384 580c30.93 0 56 22.4 56 50s-25.07 50-56 50h-168c-30.93 0-56-22.4-56-50s25.07-50 56-50z" stroke="#3a414a" fill="#fff"/><use xlink:href="#h" transform="matrix(1,0,0,1,1165,585) translate(57.46913580246914 48.71527777777778)"/><use xlink:href="#i" transform="matrix(1,0,0,1,1165,585) translate(103.14814814814815 48.71527777777778)"/><use xlink:href="#j" transform="matrix(1,0,0,1,1165,585) translate(153.64197530864197 48.71527777777778)"/><path d="M1530 359.18v103.9a6 6 0 0 1-6 6h-236.88a6 6 0 0 0-6 6v88.04" stroke="#3a414a" fill="none"/><path d="M1530 358.68l.5-.03v.55h-1v-.55z" stroke="#3a414a" stroke-width=".05" fill="#3a414a"/><path d="M1281.12 577.88l-4.64-14.26h9.27z" stroke="#3a414a" fill="#3a414a"/><path d="M1764 580c30.93 0 56 22.4 56 50s-25.07 50-56 50h-168c-30.93 0-56-22.4-56-50s25.07-50 56-50z" stroke="#3a414a" fill="#fff"/><use xlink:href="#k" transform="matrix(1,0,0,1,1545,585) translate(75.03086419753086 48.71527777777778)"/><use xlink:href="#l" transform="matrix(1,0,0,1,1545,585) translate(128.7962962962963 48.71527777777778)"/><path d="M1530 359.18v103.9a6 6 0 0 0 6 6h138a6 6 0 0 1 6 6v88.04" stroke="#3a414a" fill="none"/><path d="M1530 358.68l.5-.03v.55h-1v-.55z" stroke="#3a414a" stroke-width=".05" fill="#3a414a"/><path d="M1680 577.88l-4.64-14.26h9.28z" stroke="#3a414a" fill="#3a414a"/><path d="M1674.8 782.98a10.5 10.5 0 0 1 10.4 0l129.6 74.04a3.43 3.43 0 0 1 0 5.96l-129.6 74.04a10.5 10.5 0 0 1-10.4 0l-129.6-74.04a3.43 3.43 0 0 1 0-5.96z" stroke="#3a414a" fill="#fff"/><use xlink:href="#m" transform="matrix(1,0,0,1,1545,785) translate(51.270432098765426 78.71527777777777)"/><use xlink:href="#n" transform="matrix(1,0,0,1,1545,785) translate(128.98648148148146 78.71527777777777)"/><path d="M1680 681v83.7" stroke="#3a414a" fill="none"/><path d="M1680.5 681h-1v-.5h1z" stroke="#3a414a" stroke-width=".05" fill="#3a414a"/><path d="M1680 779.47l-4.64-14.26h9.28z" stroke="#3a414a" fill="#3a414a"/><path d="M1304 1060c30.93 0 56 17.9 56 40s-25.07 40-56 40h-168c-30.93 0-56-17.9-56-40s25.07-40 56-40z" stroke="#3a414a" fill="#fff"/><use xlink:href="#k" transform="matrix(1,0,0,1,1085,1065) translate(31.851851851851848 39.65277777777778)"/><use xlink:href="#o" transform="matrix(1,0,0,1,1085,1065) translate(85.61728395061728 39.65277777777778)"/><path d="M1788 1060c39.76 0 72 17.9 72 40s-32.24 40-72 40h-216c-39.76 0-72-17.9-72-40s32.24-40 72-40z" stroke="#3a414a" fill="#fff"/><use xlink:href="#h" transform="matrix(1,0,0,1,1505,1065) translate(59.845679012345684 39.65277777777778)"/><use xlink:href="#i" transform="matrix(1,0,0,1,1505,1065) translate(105.5246913580247 39.65277777777778)"/><use xlink:href="#p" transform="matrix(1,0,0,1,1505,1065) translate(156.01851851851853 39.65277777777778)"/><path d="M1680 939.4v59.5a.3.3 0 0 1-.3.3.3.3 0 0 0-.3.3v43.62" stroke="#3a414a" fill="none"/><path d="M1680 938.9l.5-.02v.54h-1v-.54z" stroke="#3a414a" stroke-width=".05" fill="#3a414a"/><path d="M1679.4 1057.88l-4.63-14.26h9.27z" stroke="#3a414a" fill="#3a414a"/><path d="M1680 939.4v53.8a6 6 0 0 1-6 6h-448a6 6 0 0 0-6 6v37.92" stroke="#3a414a" fill="none"/><path d="M1680 938.9l.5-.02v.54h-1v-.54z" stroke="#3a414a" stroke-width=".05" fill="#3a414a"/><path d="M1220 1057.88l-4.64-14.26h9.28z" stroke="#3a414a" fill="#3a414a"/><path d="M464 840c30.93 0 56 17.9 56 40s-25.07 40-56 40H296c-30.93 0-56-17.9-56-40s25.07-40 56-40z" stroke="#3a414a" fill="#fff"/><g><use xlink:href="#q" transform="matrix(1,0,0,1,245,845) translate(63.95061728395062 39.65277777777778)"/><use xlink:href="#r" transform="matrix(1,0,0,1,245,845) translate(118.20987654320987 39.65277777777778)"/><use xlink:href="#s" transform="matrix(1,0,0,1,245,845) translate(148.95061728395063 39.65277777777778)"/></g><path d="M380 659.08v164.04" stroke="#3a414a" fill="none"/><path d="M380 658.58l.5-.03v.54h-1v-.55z" stroke="#3a414a" stroke-width=".05" fill="#3a414a"/><path d="M380 837.88l-4.64-14.26h9.28z" stroke="#3a414a" fill="#3a414a"/><defs><path fill="#3a414a" d="M141-36C126-15 110 5 73 4 37 3 15-17 15-53c-1-64 63-63 125-63 3-35-9-54-41-54-24 1-41 7-42 31l-33-3c5-37 33-52 76-52 45 0 72 20 72 64v82c-1 20 7 32 28 27v20c-31 9-61-2-59-35zM48-53c0 20 12 33 32 33 41-3 63-29 60-74-43 2-92-5-92 41" id="t"/><path fill="#3a414a" d="M115-194c55 1 70 41 70 98S169 2 115 4C84 4 66-9 55-30l1 105H24l-1-265h31l2 30c10-21 28-34 59-34zm-8 174c40 0 45-34 45-75s-6-73-45-74c-42 0-51 32-51 76 0 43 10 73 51 73" id="u"/><g id="a"><use transform="matrix(0.06172839506172839,0,0,0.06172839506172839,0,0)" xlink:href="#t"/><use transform="matrix(0.06172839506172839,0,0,0.06172839506172839,12.345679012345679,0)" xlink:href="#u"/><use transform="matrix(0.06172839506172839,0,0,0.06172839506172839,24.691358024691358,0)" xlink:href="#u"/></g><path fill="#3a414a" d="M16-82v-28h88v28H16" id="v"/><use transform="matrix(0.06172839506172839,0,0,0.06172839506172839,0,0)" xlink:href="#v" id="b"/><path fill="#3a414a" d="M109-170H84l-4-78h32zm-65 0H19l-4-78h33" id="w"/><path fill="#3a414a" d="M0 4l72-265h28L28 4H0" id="x"/><g id="c"><use transform="matrix(0.06172839506172839,0,0,0.06172839506172839,0,0)" xlink:href="#w"/><use transform="matrix(0.06172839506172839,0,0,0.06172839506172839,7.8395061728395055,0)" xlink:href="#x"/><use transform="matrix(0.06172839506172839,0,0,0.06172839506172839,14.012345679012345,0)" xlink:href="#w"/></g><path fill="#3a414a" d="M30 0v-248h187v28H63v79h144v27H63v87h162V0H30" id="y"/><path fill="#3a414a" d="M117-194c89-4 53 116 60 194h-32v-121c0-31-8-49-39-48C34-167 62-67 57 0H25l-1-190h30c1 10-1 24 2 32 11-22 29-35 61-36" id="z"/><path fill="#3a414a" d="M59-47c-2 24 18 29 38 22v24C64 9 27 4 27-40v-127H5v-23h24l9-43h21v43h35v23H59v120" id="A"/><path fill="#3a414a" d="M114-163C36-179 61-72 57 0H25l-1-190h30c1 12-1 29 2 39 6-27 23-49 58-41v29" id="B"/><path fill="#3a414a" d="M179-190L93 31C79 59 56 82 12 73V49c39 6 53-20 64-50L1-190h34L92-34l54-156h33" id="C"/><g id="d"><use transform="matrix(0.06172839506172839,0,0,0.06172839506172839,0,0)" xlink:href="#y"/><use transform="matrix(0.06172839506172839,0,0,0.06172839506172839,14.814814814814813,0)" xlink:href="#z"/><use transform="matrix(0.06172839506172839,0,0,0.06172839506172839,27.160493827160494,0)" xlink:href="#A"/><use transform="matrix(0.06172839506172839,0,0,0.06172839506172839,33.333333333333336,0)" xlink:href="#B"/><use transform="matrix(0.06172839506172839,0,0,0.06172839506172839,40.67901234567901,0)" xlink:href="#C"/></g><path fill="#3a414a" d="M100-194c63 0 86 42 84 106H49c0 40 14 67 53 68 26 1 43-12 49-29l28 8c-11 28-37 45-77 45C44 4 14-33 15-96c1-61 26-98 85-98zm52 81c6-60-76-77-97-28-3 7-6 17-6 28h103" id="D"/><g id="e"><use transform="matrix(0.06172839506172839,0,0,0.06172839506172839,0,0)" xlink:href="#w"/><use transform="matrix(0.06172839506172839,0,0,0.06172839506172839,7.8395061728395055,0)" xlink:href="#x"/><use transform="matrix(0.06172839506172839,0,0,0.06172839506172839,14.012345679012345,0)" xlink:href="#D"/><use transform="matrix(0.06172839506172839,0,0,0.06172839506172839,26.358024691358025,0)" xlink:href="#z"/><use transform="matrix(0.06172839506172839,0,0,0.06172839506172839,38.7037037037037,0)" xlink:href="#A"/><use transform="matrix(0.06172839506172839,0,0,0.06172839506172839,44.876543209876544,0)" xlink:href="#B"/><use transform="matrix(0.06172839506172839,0,0,0.06172839506172839,52.22222222222222,0)" xlink:href="#C"/><use transform="matrix(0.06172839506172839,0,0,0.06172839506172839,63.33333333333333,0)" xlink:href="#w"/></g><path fill="#3a414a" d="M30-248c118-7 216 8 213 122C240-48 200 0 122 0H30v-248zM63-27c89 8 146-16 146-99s-60-101-146-95v194" id="E"/><path fill="#3a414a" d="M135-143c-3-34-86-38-87 0 15 53 115 12 119 90S17 21 10-45l28-5c4 36 97 45 98 0-10-56-113-15-118-90-4-57 82-63 122-42 12 7 21 19 24 35" id="F"/><path fill="#3a414a" d="M106-169C34-169 62-67 57 0H25v-261h32l-1 103c12-21 28-36 61-36 89 0 53 116 60 194h-32v-121c2-32-8-49-39-48" id="G"/><path fill="#3a414a" d="M115-194c53 0 69 39 70 98 0 66-23 100-70 100C84 3 66-7 56-30L54 0H23l1-261h32v101c10-23 28-34 59-34zm-8 174c40 0 45-34 45-75 0-40-5-75-45-74-42 0-51 32-51 76 0 43 10 73 51 73" id="H"/><path fill="#3a414a" d="M100-194c62-1 85 37 85 99 1 63-27 99-86 99S16-35 15-95c0-66 28-99 85-99zM99-20c44 1 53-31 53-75 0-43-8-75-51-75s-53 32-53 75 10 74 51 75" id="I"/><path fill="#3a414a" d="M85-194c31 0 48 13 60 33l-1-100h32l1 261h-30c-2-10 0-23-3-31C134-8 116 4 85 4 32 4 16-35 15-94c0-66 23-100 70-100zm9 24c-40 0-46 34-46 75 0 40 6 74 45 74 42 0 51-32 51-76 0-42-9-74-50-73" id="J"/><g id="f"><use transform="matrix(0.06172839506172839,0,0,0.06172839506172839,0,0)" xlink:href="#E"/><use transform="matrix(0.06172839506172839,0,0,0.06172839506172839,15.987654320987653,0)" xlink:href="#t"/><use transform="matrix(0.06172839506172839,0,0,0.06172839506172839,28.333333333333332,0)" xlink:href="#F"/><use transform="matrix(0.06172839506172839,0,0,0.06172839506172839,39.44444444444444,0)" xlink:href="#G"/><use transform="matrix(0.06172839506172839,0,0,0.06172839506172839,51.79012345679012,0)" xlink:href="#H"/><use transform="matrix(0.06172839506172839,0,0,0.06172839506172839,64.1358024691358,0)" xlink:href="#I"/><use transform="matrix(0.06172839506172839,0,0,0.06172839506172839,76.48148148148148,0)" xlink:href="#t"/><use transform="matrix(0.06172839506172839,0,0,0.06172839506172839,88.82716049382717,0)" xlink:href="#B"/><use transform="matrix(0.06172839506172839,0,0,0.06172839506172839,96.17283950617285,0)" xlink:href="#J"/></g><g id="g"><use transform="matrix(0.06172839506172839,0,0,0.06172839506172839,0,0)" xlink:href="#w"/><use transform="matrix(0.06172839506172839,0,0,0.06172839506172839,7.8395061728395055,0)" xlink:href="#x"/><use transform="matrix(0.06172839506172839,0,0,0.06172839506172839,14.012345679012345,0)" xlink:href="#J"/><use transform="matrix(0.06172839506172839,0,0,0.06172839506172839,26.358024691358025,0)" xlink:href="#t"/><use transform="matrix(0.06172839506172839,0,0,0.06172839506172839,38.7037037037037,0)" xlink:href="#F"/><use transform="matrix(0.06172839506172839,0,0,0.06172839506172839,49.81481481481481,0)" xlink:href="#G"/><use transform="matrix(0.06172839506172839,0,0,0.06172839506172839,62.16049382716049,0)" xlink:href="#H"/><use transform="matrix(0.06172839506172839,0,0,0.06172839506172839,74.50617283950616,0)" xlink:href="#I"/><use transform="matrix(0.06172839506172839,0,0,0.06172839506172839,86.85185185185185,0)" xlink:href="#t"/><use transform="matrix(0.06172839506172839,0,0,0.06172839506172839,99.19753086419753,0)" xlink:href="#B"/><use transform="matrix(0.06172839506172839,0,0,0.06172839506172839,106.54320987654322,0)" xlink:href="#J"/><use transform="matrix(0.06172839506172839,0,0,0.06172839506172839,118.8888888888889,0)" xlink:href="#w"/></g><path fill="#3a414a" d="M205 0l-28-72H64L36 0H1l101-248h38L239 0h-34zm-38-99l-47-123c-12 45-31 82-46 123h93" id="K"/><g id="h"><use transform="matrix(0.06172839506172839,0,0,0.06172839506172839,0,0)" xlink:href="#K"/><use transform="matrix(0.06172839506172839,0,0,0.06172839506172839,14.814814814814813,0)" xlink:href="#J"/><use transform="matrix(0.06172839506172839,0,0,0.06172839506172839,27.160493827160494,0)" xlink:href="#J"/></g><path fill="#3a414a" d="M190 0L58-211 59 0H30v-248h39L202-35l-2-213h31V0h-41" id="L"/><path fill="#3a414a" d="M206 0h-36l-40-164L89 0H53L-1-190h32L70-26l43-164h34l41 164 42-164h31" id="M"/><g id="i"><use transform="matrix(0.06172839506172839,0,0,0.06172839506172839,0,0)" xlink:href="#L"/><use transform="matrix(0.06172839506172839,0,0,0.06172839506172839,15.987654320987653,0)" xlink:href="#D"/><use transform="matrix(0.06172839506172839,0,0,0.06172839506172839,28.333333333333332,0)" xlink:href="#M"/></g><g id="j"><use transform="matrix(0.06172839506172839,0,0,0.06172839506172839,0,0)" xlink:href="#w"/><use transform="matrix(0.06172839506172839,0,0,0.06172839506172839,7.8395061728395055,0)" xlink:href="#x"/><use transform="matrix(0.06172839506172839,0,0,0.06172839506172839,14.012345679012345,0)" xlink:href="#t"/><use transform="matrix(0.06172839506172839,0,0,0.06172839506172839,26.358024691358025,0)" xlink:href="#J"/><use transform="matrix(0.06172839506172839,0,0,0.06172839506172839,38.7037037037037,0)" xlink:href="#J"/><use transform="matrix(0.06172839506172839,0,0,0.06172839506172839,51.04938271604938,0)" xlink:href="#w"/></g><path fill="#3a414a" d="M137 0h-34L2-248h35l83 218 83-218h36" id="N"/><path fill="#3a414a" d="M24-231v-30h32v30H24zM24 0v-190h32V0H24" id="O"/><g id="k"><use transform="matrix(0.06172839506172839,0,0,0.06172839506172839,0,0)" xlink:href="#N"/><use transform="matrix(0.06172839506172839,0,0,0.06172839506172839,14.382716049382715,0)" xlink:href="#O"/><use transform="matrix(0.06172839506172839,0,0,0.06172839506172839,19.25925925925926,0)" xlink:href="#D"/><use transform="matrix(0.06172839506172839,0,0,0.06172839506172839,31.604938271604937,0)" xlink:href="#M"/></g><path fill="#3a414a" d="M108 0H70L1-190h34L89-25l56-165h34" id="P"/><g id="l"><use transform="matrix(0.06172839506172839,0,0,0.06172839506172839,0,0)" xlink:href="#w"/><use transform="matrix(0.06172839506172839,0,0,0.06172839506172839,7.8395061728395055,0)" xlink:href="#x"/><use transform="matrix(0.06172839506172839,0,0,0.06172839506172839,14.012345679012345,0)" xlink:href="#P"/><use transform="matrix(0.06172839506172839,0,0,0.06172839506172839,25.123456790123456,0)" xlink:href="#O"/><use transform="matrix(0.06172839506172839,0,0,0.06172839506172839,30,0)" xlink:href="#D"/><use transform="matrix(0.06172839506172839,0,0,0.06172839506172839,42.34567901234568,0)" xlink:href="#M"/><use transform="matrix(0.06172839506172839,0,0,0.06172839506172839,58.33333333333333,0)" xlink:href="#w"/></g><path fill="#3a414a" d="M232-93c-1 65-40 97-104 97C67 4 28-28 28-90v-158h33c8 89-33 224 67 224 102 0 64-133 71-224h33v155" id="Q"/><g id="m"><use transform="matrix(0.06172839506172839,0,0,0.06172839506172839,0,0)" xlink:href="#Q"/><use transform="matrix(0.06172839506172839,0,0,0.06172839506172839,15.987654320987653,0)" xlink:href="#u"/><use transform="matrix(0.06172839506172839,0,0,0.06172839506172839,28.333333333333332,0)" xlink:href="#J"/><use transform="matrix(0.06172839506172839,0,0,0.06172839506172839,40.67901234567901,0)" xlink:href="#t"/><use transform="matrix(0.06172839506172839,0,0,0.06172839506172839,53.02469135802469,0)" xlink:href="#A"/><use transform="matrix(0.06172839506172839,0,0,0.06172839506172839,59.19753086419753,0)" xlink:href="#D"/></g><path fill="#3a414a" d="M84 4C-5 8 30-112 23-190h32v120c0 31 7 50 39 49 72-2 45-101 50-169h31l1 190h-30c-1-10 1-25-2-33-11 22-28 36-60 37" id="R"/><g id="n"><use transform="matrix(0.06172839506172839,0,0,0.06172839506172839,0,0)" xlink:href="#w"/><use transform="matrix(0.06172839506172839,0,0,0.06172839506172839,7.8395061728395055,0)" xlink:href="#x"/><use transform="matrix(0.06172839506172839,0,0,0.06172839506172839,14.012345679012345,0)" xlink:href="#R"/><use transform="matrix(0.06172839506172839,0,0,0.06172839506172839,26.358024691358025,0)" xlink:href="#u"/><use transform="matrix(0.06172839506172839,0,0,0.06172839506172839,38.7037037037037,0)" xlink:href="#J"/><use transform="matrix(0.06172839506172839,0,0,0.06172839506172839,51.04938271604938,0)" xlink:href="#t"/><use transform="matrix(0.06172839506172839,0,0,0.06172839506172839,63.395061728395056,0)" xlink:href="#A"/><use transform="matrix(0.06172839506172839,0,0,0.06172839506172839,69.5679012345679,0)" xlink:href="#D"/><use transform="matrix(0.06172839506172839,0,0,0.06172839506172839,81.91358024691358,0)" xlink:href="#w"/></g><g id="o"><use transform="matrix(0.06172839506172839,0,0,0.06172839506172839,0,0)" xlink:href="#w"/><use transform="matrix(0.06172839506172839,0,0,0.06172839506172839,7.8395061728395055,0)" xlink:href="#x"/><use transform="matrix(0.06172839506172839,0,0,0.06172839506172839,14.012345679012345,0)" xlink:href="#P"/><use transform="matrix(0.06172839506172839,0,0,0.06172839506172839,25.123456790123456,0)" xlink:href="#O"/><use transform="matrix(0.06172839506172839,0,0,0.06172839506172839,30,0)" xlink:href="#D"/><use transform="matrix(0.06172839506172839,0,0,0.06172839506172839,42.34567901234568,0)" xlink:href="#M"/><use transform="matrix(0.06172839506172839,0,0,0.06172839506172839,58.33333333333333,0)" xlink:href="#v"/><use transform="matrix(0.06172839506172839,0,0,0.06172839506172839,65.67901234567901,0)" xlink:href="#R"/><use transform="matrix(0.06172839506172839,0,0,0.06172839506172839,78.0246913580247,0)" xlink:href="#u"/><use transform="matrix(0.06172839506172839,0,0,0.06172839506172839,90.37037037037038,0)" xlink:href="#J"/><use transform="matrix(0.06172839506172839,0,0,0.06172839506172839,102.71604938271606,0)" xlink:href="#t"/><use transform="matrix(0.06172839506172839,0,0,0.06172839506172839,115.06172839506175,0)" xlink:href="#A"/><use transform="matrix(0.06172839506172839,0,0,0.06172839506172839,121.23456790123458,0)" xlink:href="#D"/><use transform="matrix(0.06172839506172839,0,0,0.06172839506172839,133.58024691358025,0)" xlink:href="#F"/><use transform="matrix(0.06172839506172839,0,0,0.06172839506172839,144.69135802469137,0)" xlink:href="#w"/></g><g id="p"><use transform="matrix(0.06172839506172839,0,0,0.06172839506172839,0,0)" xlink:href="#w"/><use transform="matrix(0.06172839506172839,0,0,0.06172839506172839,7.8395061728395055,0)" xlink:href="#x"/><use transform="matrix(0.06172839506172839,0,0,0.06172839506172839,14.012345679012345,0)" xlink:href="#t"/><use transform="matrix(0.06172839506172839,0,0,0.06172839506172839,26.358024691358025,0)" xlink:href="#J"/><use transform="matrix(0.06172839506172839,0,0,0.06172839506172839,38.7037037037037,0)" xlink:href="#J"/><use transform="matrix(0.06172839506172839,0,0,0.06172839506172839,51.04938271604938,0)" xlink:href="#v"/><use transform="matrix(0.06172839506172839,0,0,0.06172839506172839,58.395061728395056,0)" xlink:href="#R"/><use transform="matrix(0.06172839506172839,0,0,0.06172839506172839,70.74074074074073,0)" xlink:href="#u"/><use transform="matrix(0.06172839506172839,0,0,0.06172839506172839,83.08641975308642,0)" xlink:href="#J"/><use transform="matrix(0.06172839506172839,0,0,0.06172839506172839,95.4320987654321,0)" xlink:href="#t"/><use transform="matrix(0.06172839506172839,0,0,0.06172839506172839,107.77777777777779,0)" xlink:href="#A"/><use transform="matrix(0.06172839506172839,0,0,0.06172839506172839,113.95061728395062,0)" xlink:href="#D"/><use transform="matrix(0.06172839506172839,0,0,0.06172839506172839,126.2962962962963,0)" xlink:href="#w"/></g><path fill="#3a414a" d="M140-251c81 0 123 46 123 126C263-46 219 4 140 4 59 4 17-45 17-125s42-126 123-126zm0 227c63 0 89-41 89-101s-29-99-89-99c-61 0-89 39-89 99S79-25 140-24" id="S"/><g id="q"><use transform="matrix(0.06172839506172839,0,0,0.06172839506172839,0,0)" xlink:href="#S"/><use transform="matrix(0.06172839506172839,0,0,0.06172839506172839,17.28395061728395,0)" xlink:href="#P"/><use transform="matrix(0.06172839506172839,0,0,0.06172839506172839,28.39506172839506,0)" xlink:href="#D"/><use transform="matrix(0.06172839506172839,0,0,0.06172839506172839,40.74074074074074,0)" xlink:href="#B"/></g><path fill="#3a414a" d="M24 0v-261h32V0H24" id="T"/><g id="r"><use transform="matrix(0.06172839506172839,0,0,0.06172839506172839,0,0)" xlink:href="#K"/><use transform="matrix(0.06172839506172839,0,0,0.06172839506172839,14.814814814814813,0)" xlink:href="#T"/><use transform="matrix(0.06172839506172839,0,0,0.06172839506172839,19.691358024691354,0)" xlink:href="#T"/></g><path fill="#3a414a" d="M127-220V0H93v-220H8v-28h204v28h-85" id="U"/><g id="s"><use transform="matrix(0.06172839506172839,0,0,0.06172839506172839,0,0)" xlink:href="#U"/><use transform="matrix(0.06172839506172839,0,0,0.06172839506172839,12.716049382716047,0)" xlink:href="#B"/><use transform="matrix(0.06172839506172839,0,0,0.06172839506172839,20.061728395061728,0)" xlink:href="#D"/><use transform="matrix(0.06172839506172839,0,0,0.06172839506172839,32.407407407407405,0)" xlink:href="#z"/><use transform="matrix(0.06172839506172839,0,0,0.06172839506172839,44.75308641975308,0)" xlink:href="#J"/></g></defs></g></svg>